<?xml version="1.0" encoding="utf-8"?>
<!-- Generator: Adobe Illustrator 23.1.0, SVG Export Plug-In . SVG Version: 6.00 Build 0)  -->
<svg version="1.1" xmlns="http://www.w3.org/2000/svg" xmlns:xlink="http://www.w3.org/1999/xlink" x="0px" y="0px"
	 viewBox="0 0 700 700" style="enable-background:new 0 0 700 700;" xml:space="preserve">
<style type="text/css">
	.st0{display:none;}
	.st1{display:inline;fill:#FFFFFF;stroke:#000000;stroke-miterlimit:10;}
	.st2{display:inline;}
	.st3{fill-rule:evenodd;clip-rule:evenodd;fill:url(#SVGID_1_);}
	.st4{fill-rule:evenodd;clip-rule:evenodd;fill:url(#SVGID_2_);}
</style>
<g id="Layer_1" class="st0">
	<circle class="st1" cx="350" cy="350" r="350"/>
	<path class="st2" d="M435.6,365c41.8-27.8,69.4-75.2,69.4-129.1c0-85.4-69.5-154.9-154.9-154.9c-85.4,0-154.9,69.5-154.9,154.9
		c0,53.8,27.6,101.3,69.4,129.1c-94.6,34.9-162.4,125.7-162.4,232.3V618H598v-20.6C598,490.7,530.2,399.9,435.6,365z M236.6,236
		c0-62.6,51-113.6,113.6-113.6c62.6,0,113.6,50.9,113.6,113.6s-51,113.6-113.6,113.6C287.6,349.5,236.6,298.6,236.6,236z
		 M144.8,576.7c10.4-104.2,98.6-185.8,205.5-185.8c106.9,0,195.1,81.6,205.5,185.8H144.8z"/>
</g>
<g id="Layer_2">
	<linearGradient id="SVGID_1_" gradientUnits="userSpaceOnUse" x1="350.2996" y1="699.8902" x2="350.2996" y2="0.4894">
		<stop  offset="0" style="stop-color:#0D2F54"/>
		<stop  offset="0.3309" style="stop-color:#1A3F63"/>
		<stop  offset="1" style="stop-color:#185B8E"/>
	</linearGradient>
	<path class="st3" d="M350.3,0.5C543.4,0.5,700,157.1,700,350.2S543.4,699.9,350.3,699.9S0.6,543.3,0.6,350.2S157.2,0.5,350.3,0.5
		L350.3,0.5z"/>
	<g>
		<linearGradient id="SVGID_2_" gradientUnits="userSpaceOnUse" x1="548.6806" y1="645.986" x2="151.9199" y2="249.2253">
			<stop  offset="0" style="stop-color:#0A74FF"/>
			<stop  offset="1" style="stop-color:#00EEFF"/>
		</linearGradient>
		<path class="st4" d="M230.2,420.6c-74.8,29.7-105.7,107.7-117.4,186.4c62.4,57.7,145.8,93,237.4,93c91.7,0,175.1-35.3,237.4-93
			c-11.7-78.6-42.5-156.7-117.3-186.4c-7.1-2.8-14.4-5.2-21.7-7.1c-12.8-3.4-24.8-2.4-36.9,3c-19.4,8.7-40.3,13.7-61.5,13.7
			c-21.3,0-42.2-5.1-61.5-13.7c-12.1-5.4-24.1-6.4-36.9-3C244.6,415.4,237.3,417.7,230.2,420.6L230.2,420.6z M216.2,250
			c5.1,84.7,74.7,141.4,134.1,141.4c59.4,0,129-56.7,134.1-141.4c5.1-84.7-60-141.4-134.1-141.4C276.2,108.6,211.1,165.4,216.2,250
			L216.2,250z"/>
	</g>
</g>
</svg>